<?xml version="1.0" encoding="utf-8"?>
<!-- Generator: Adobe Illustrator 15.0.2, SVG Export Plug-In . SVG Version: 6.00 Build 0)  -->
<!DOCTYPE svg PUBLIC "-//W3C//DTD SVG 1.1//EN" "http://www.w3.org/Graphics/SVG/1.1/DTD/svg11.dtd">
<svg version="1.1" id="Layer_1" xmlns="http://www.w3.org/2000/svg" xmlns:xlink="http://www.w3.org/1999/xlink" x="0px" y="0px"
	 width="217.497px" height="98.447px" viewBox="0 0 217.497 98.447" enable-background="new 0 0 217.497 98.447"
	 xml:space="preserve">
<g>
	<g>
		<rect x="76.114" y="65.765" fill="#FFCC5F" width="10.894" height="10.895"/>
		<rect x="76.114" y="76.659" fill="#3060F9" width="10.894" height="10.894"/>
		<rect x="97.902" y="65.765" fill="#FFCC5F" width="10.894" height="10.895"/>
		<rect x="76.114" y="54.871" fill="#34CE93" width="10.894" height="10.894"/>
		<rect x="97.902" y="54.871" fill="#F96638" width="10.894" height="10.894"/>
		<rect x="97.902" y="76.659" fill="#34CE93" width="10.894" height="10.894"/>
		<rect x="87.008" y="87.553" fill="#F96638" width="10.894" height="10.895"/>
		<rect x="119.553" y="65.765" fill="#34CE93" width="10.894" height="10.895"/>
		<rect x="119.553" y="54.871" fill="#7F7161" width="10.894" height="10.894"/>
		<rect x="119.553" y="76.659" fill="#F96638" width="10.894" height="10.894"/>
		<rect x="108.66" y="87.553" fill="#7F7161" width="10.894" height="10.895"/>
		<rect x="206.602" y="76.659" fill="#F96638" width="10.895" height="10.894"/>
		<rect x="206.602" y="87.553" fill="#34CE93" width="10.895" height="10.895"/>
		<rect x="206.602" y="65.765" fill="#FFCC5F" width="10.895" height="10.895"/>
		<rect x="184.952" y="76.659" fill="#34CE93" width="10.893" height="10.894"/>
		<rect x="184.952" y="87.553" fill="#F96638" width="10.893" height="10.895"/>
		<rect x="184.952" y="65.765" fill="#7F7161" width="10.893" height="10.895"/>
		<rect x="184.952" y="54.871" fill="#34CE93" width="10.893" height="10.894"/>
		<rect x="195.844" y="54.871" fill="#3060F9" width="10.895" height="10.894"/>
		<rect x="152.337" y="65.765" fill="#34CE93" width="10.894" height="10.895"/>
		<rect x="152.337" y="54.871" fill="#F96638" width="10.894" height="10.894"/>
		<rect x="152.337" y="76.659" fill="#FFCC5F" width="10.894" height="10.894"/>
		<rect x="152.337" y="87.553" fill="#3060F9" width="10.894" height="10.895"/>
		<rect x="141.443" y="87.553" fill="#F96638" width="10.894" height="10.895"/>
		<rect x="163.095" y="87.553" fill="#34CE93" width="10.894" height="10.895"/>
		<rect x="141.443" y="54.871" fill="#3060F9" width="10.894" height="10.894"/>
		<rect x="163.095" y="54.871" fill="#7F7161" width="10.894" height="10.894"/>
	</g>
	<g>
		<rect fill="#F96638" width="10.894" height="10.894"/>
		<rect y="10.894" fill="#34CE93" width="10.894" height="10.895"/>
		<rect x="21.788" fill="#FFCC5F" width="10.894" height="10.894"/>
		<rect x="21.788" y="10.894" fill="#3060F9" width="10.894" height="10.895"/>
		<rect x="43.712" y="10.894" fill="#3060F9" width="10.894" height="10.895"/>
		<rect x="43.712" y="21.788" fill="#FFCC5F" width="10.894" height="10.894"/>
		<rect x="65.5" y="10.894" fill="#F96638" width="10.894" height="10.895"/>
		<rect x="65.5" y="21.788" fill="#34CE93" width="10.894" height="10.894"/>
		<rect x="10.894" y="21.788" fill="#7F7161" width="10.894" height="10.894"/>
		<rect x="10.894" y="32.682" fill="#34CE93" width="10.894" height="10.895"/>
		<rect x="54.606" y="32.682" fill="#3060F9" width="10.894" height="10.895"/>
		<rect x="87.288" y="10.894" fill="#FFCC5F" width="10.894" height="10.895"/>
		<rect x="87.288" y="21.788" fill="#34CE93" width="10.894" height="10.894"/>
		<rect x="109.075" y="10.894" fill="#34CE93" width="10.894" height="10.895"/>
		<rect x="87.288" fill="#F96638" width="10.894" height="10.894"/>
		<rect x="109.075" fill="#7F7161" width="10.894" height="10.894"/>
		<rect x="109.075" y="21.788" fill="#F96638" width="10.894" height="10.894"/>
		<rect x="109.075" y="32.682" fill="#FFCC5F" width="10.894" height="10.895"/>
		<rect x="98.182" y="32.682" fill="#3060F9" width="10.894" height="10.895"/>
		<rect x="54.606" fill="#34CE93" width="10.894" height="10.894"/>
	</g>
</g>
</svg>
